<?xml version="1.0" encoding="UTF-8" standalone="no"?>
<!DOCTYPE svg PUBLIC "-//W3C//DTD SVG 1.1//EN" "http://www.w3.org/Graphics/SVG/1.1/DTD/svg11.dtd">
<svg width="100%" height="100%" viewBox="0 0 512 512" version="1.1" xmlns="http://www.w3.org/2000/svg" xmlns:xlink="http://www.w3.org/1999/xlink" xml:space="preserve" xmlns:serif="http://www.serif.com/" style="fill-rule:evenodd;clip-rule:evenodd;stroke-linecap:round;stroke-linejoin:round;stroke-miterlimit:1.5;">
    <rect x="141.954" y="129.505" width="294.386" height="364.649" style="fill:rgb(121,85,72);stroke:black;stroke-width:1px;"/>
    <g>
        <path d="M100.21,96.593C93.372,89.729 89.193,80.413 89.184,69.963C89.193,59.513 93.373,50.197 100.21,43.333C107.084,36.486 116.399,32.306 126.85,32.297L438.96,32.297L438.96,0.009L126.849,0C88.21,0.018 56.905,31.314 56.896,69.963L56.896,442.047C56.905,480.686 88.21,511.991 126.85,512.001L455.105,512.001L455.105,107.62L126.849,107.62C116.399,107.62 107.083,103.44 100.21,96.593ZM165.281,139.916L422.817,139.916L422.817,479.703L165.281,479.703L165.281,139.916Z" style="fill:rgb(66,52,46);fill-rule:nonzero;"/>
        <path d="M143.749,56.125C136.11,56.125 129.911,62.323 129.911,69.963C129.911,77.603 136.11,83.8 143.749,83.8L455.104,83.8L455.104,56.125L143.749,56.125Z" style="fill:rgb(66,52,46);fill-rule:nonzero;"/>
        <g transform="matrix(12.1926,0,0,12.1926,-2386.43,-2238.78)">
            <text x="209.674px" y="205.193px" style="font-family:'NotoSans-Bold', 'Noto Sans', sans-serif;font-weight:700;font-size:12px;fill:rgb(238,238,238);">MH</text>
        </g>
        <g transform="matrix(0.330048,0,0,0.330048,153.009,402.778)">
            <text x="209.674px" y="205.193px" style="font-family:'NotoSans-Bold', 'Noto Sans', sans-serif;font-weight:700;font-size:288px;fill:rgb(238,238,238);">C  S</text>
        </g>
        <g transform="matrix(1,0,0,1,236.891,273.716)">
            <text x="0px" y="111.162px" style="font-family:'NotoSans-Bold', 'Noto Sans', sans-serif;font-weight:700;font-size:146.311px;fill:rgb(238,238,238);">W</text>
        </g>
    </g>
</svg>
